<svg width="36" height="18" viewBox="0 0 36 18" fill="none" xmlns="http://www.w3.org/2000/svg">
<path opacity="0.9" d="M17.9912 17.5C19.1804 17.5 20.3198 17.0361 21.1592 16.2119V16.2109L35.1641 2.43066C35.3803 2.21749 35.5002 1.92952 35.5 1.63184C35.4997 1.33441 35.3794 1.04772 35.1631 0.834961V0.833984C34.9464 0.620879 34.6506 0.500097 34.3408 0.5C34.0311 0.5 33.7353 0.621025 33.5186 0.833984L19.5137 14.6152H19.5127C19.1072 15.014 18.5591 15.2373 17.9893 15.2373C17.4194 15.2372 16.8712 15.014 16.4658 14.6152L2.4668 0.84082C2.24882 0.633668 1.95568 0.517036 1.64941 0.519531C1.34299 0.522151 1.05122 0.643633 0.836914 0.854492C0.622866 1.06512 0.5026 1.34821 0.5 1.64258C0.49745 1.93399 0.610184 2.21628 0.816406 2.42969L14.8223 16.2119C15.6617 17.0364 16.8018 17.5 17.9912 17.5Z" fill="white" stroke="black"/>
</svg>
