<svg width="47" height="46" viewBox="0 0 47 46" fill="none" xmlns="http://www.w3.org/2000/svg">
<path d="M23.4999 0C17.9198 0.000232198 12.5219 1.99292 8.27192 5.62152C4.02198 9.25012 1.19738 14.2778 0.303525 19.8051C-0.590333 25.3323 0.504882 30.9983 3.3932 35.7894C6.28153 40.5804 10.7745 44.1839 16.0681 45.9549C17.2431 46.1612 17.6837 45.4538 17.6837 44.8347C17.6837 44.2747 17.6543 42.4176 17.6543 40.4427C11.75 41.5333 10.2225 38.9983 9.7525 37.6719C9.23098 36.3818 8.40425 35.2385 7.34376 34.3409C6.52127 33.8987 5.34628 32.8081 7.31436 32.7786C8.06586 32.8605 8.78662 33.1229 9.41558 33.5436C10.0445 33.9644 10.5632 34.5311 10.9275 35.1957C11.2489 35.7751 11.6811 36.2852 12.1993 36.6967C12.7175 37.1082 13.3115 37.413 13.9473 37.5937C14.5831 37.7745 15.2482 37.8275 15.9045 37.7499C16.5607 37.6722 17.1953 37.4654 17.7718 37.1412C17.8735 35.9423 18.4059 34.8215 19.2699 33.9872C14.0412 33.3977 8.5775 31.3637 8.5775 22.3438C8.54448 20.0001 9.40631 17.7325 10.9862 16.0062C10.2678 13.9692 10.3519 11.7338 11.2212 9.75701C11.2212 9.75701 13.1893 9.13796 17.6837 12.1741C21.5289 11.1129 25.5884 11.1129 29.4336 12.1741C33.9279 9.10851 35.8961 9.75701 35.8961 9.75701C36.7655 11.7338 36.8496 13.9692 36.1311 16.0062C37.7157 17.7296 38.5783 19.9991 38.5398 22.3438C38.5398 31.3932 33.0467 33.3977 27.818 33.9872C28.3788 34.5576 28.8107 35.2425 29.0844 35.9952C29.3582 36.748 29.4672 37.551 29.4042 38.3498C29.4042 41.5039 29.3748 44.0389 29.3748 44.8348C29.3748 45.4539 29.8155 46.1908 30.9904 45.955C36.2748 44.1695 40.7548 40.5577 43.6308 35.7642C46.5068 30.9707 47.5917 25.3075 46.6916 19.7856C45.7915 14.2637 42.9652 9.24255 38.7171 5.61837C34.4691 1.99419 29.0757 0.00291212 23.4999 0Z" fill="white"/>
</svg>
