<svg width="20" height="20" viewBox="0 0 20 20" fill="none" xmlns="http://www.w3.org/2000/svg">
<path opacity="0.9" d="M10 0C8.02219 0 6.08879 0.586489 4.4443 1.6853C2.79981 2.78412 1.51809 4.3459 0.761209 6.17316C0.00433283 8.00043 -0.1937 10.0111 0.192152 11.9509C0.578004 13.8907 1.53041 15.6725 2.92894 17.0711C4.32746 18.4696 6.10929 19.422 8.0491 19.8078C9.98891 20.1937 11.9996 19.9957 13.8268 19.2388C15.6541 18.4819 17.2159 17.2002 18.3147 15.5557C19.4135 13.9112 20 11.9778 20 10C19.997 7.34874 18.9425 4.80693 17.0678 2.93221C15.1931 1.05749 12.6513 0.00296613 10 0ZM14.1003 16.1265C14.7924 14.2696 15.1489 12.3043 15.1531 10.3226H19.3385C19.2673 12.4626 18.4599 14.5126 17.0528 16.1265H14.1003ZM2.94722 16.1265C1.54007 14.5126 0.732754 12.4626 0.661508 10.3226H4.84686C4.85109 12.3043 5.2076 14.2696 5.89977 16.1265H2.94722ZM5.89974 3.87349C5.20759 5.73044 4.85108 7.69566 4.84686 9.67742H0.661508C0.732754 7.53738 1.54007 5.48742 2.94722 3.87349H5.89974ZM10.3226 3.22833V0.680207C11.3732 0.842994 12.3356 1.78666 13.0739 3.22833H10.3226ZM13.375 3.87349C14.1138 5.71981 14.4982 7.68879 14.508 9.67742H10.3226V3.87349H13.375ZM9.67742 0.680207V3.22833H6.92615C7.6644 1.78664 8.62679 0.842994 9.67742 0.680207ZM9.67742 3.87349V9.67742H5.49202C5.50183 7.68879 5.88619 5.71981 6.625 3.87349H9.67742ZM5.49202 10.3226H9.67742V16.1265H6.625C5.88619 14.2802 5.50183 12.3112 5.49202 10.3226ZM9.67742 16.7717V19.3198C8.62679 19.157 7.6644 18.2133 6.92615 16.7717H9.67742ZM10.3226 19.3198V16.7717H13.0739C12.3356 18.2134 11.3732 19.157 10.3226 19.3198ZM10.3226 16.1265V10.3226H14.508C14.4982 12.3112 14.1138 14.2802 13.375 16.1265H10.3226ZM15.1531 9.67742C15.1489 7.69566 14.7924 5.73044 14.1002 3.87349H17.0528C18.4599 5.48742 19.2672 7.53737 19.3385 9.67742H15.1531ZM16.4358 3.22833H13.821C13.4349 2.353 12.8756 1.56485 12.1768 0.911316C13.7758 1.29507 15.245 2.09437 16.4358 3.22833ZM6.17897 3.22833H3.56422C4.75505 2.09437 6.22427 1.29507 7.82323 0.911316C7.12447 1.56485 6.56517 2.35299 6.17897 3.22833ZM3.56422 16.7717H6.17897C6.56517 17.647 7.12447 18.4352 7.82323 19.0887C6.22427 18.7049 4.75505 17.9056 3.56422 16.7717ZM13.821 16.7717H16.4358C15.245 17.9056 13.7758 18.7049 12.1768 19.0887C12.8756 18.4351 13.4349 17.647 13.821 16.7717Z" fill="white"/>
</svg>
