<svg width="52" height="50" viewBox="0 0 52 50" fill="none" xmlns="http://www.w3.org/2000/svg">
<path d="M0 5.80808C0 4.12455 0.585602 2.73566 1.75676 1.64141C2.92791 0.547121 4.45047 0 6.32432 0C8.16475 0 9.65378 0.538687 10.7915 1.61616C11.9627 2.72727 12.5483 4.17505 12.5483 5.9596C12.5483 7.57576 11.9794 8.92253 10.8417 10C9.67054 11.1111 8.13127 11.6667 6.22394 11.6667H6.17375C4.33332 11.6667 2.84429 11.1111 1.70656 10C0.568838 8.88889 0 7.49157 0 5.80808ZM0.65251 50V16.2626H11.7954V50H0.65251ZM17.9691 50H29.112V31.1616C29.112 29.9831 29.2458 29.074 29.5135 28.4343C29.982 27.2895 30.6931 26.3215 31.6467 25.5303C32.6004 24.739 33.7966 24.3434 35.2355 24.3434C38.9833 24.3434 40.8571 26.8855 40.8571 31.9697V50H52V30.6566C52 25.6734 50.8288 21.8939 48.4865 19.3182C46.1441 16.7424 43.0489 15.4545 39.2008 15.4545C34.8842 15.4545 31.5212 17.3232 29.112 21.0606V21.1616H29.0618L29.112 21.0606V16.2626H17.9691C18.036 17.34 18.0695 20.6902 18.0695 26.3131C18.0695 31.936 18.036 39.8316 17.9691 50Z" fill="white"/>
</svg>
