<svg width="50" height="35" viewBox="0 0 50 35" fill="none" xmlns="http://www.w3.org/2000/svg">
<path d="M0 4.11359V2.91667C0 2.14312 0.32924 1.40125 0.915291 0.854272C1.50134 0.307291 2.2962 0 3.125 0L46.875 0C47.7038 0 48.4987 0.307291 49.0847 0.854272C49.6708 1.40125 50 2.14312 50 2.91667V4.11359L25 18.6969L0 4.11359ZM25.8281 21.6537C25.5797 21.7984 25.2928 21.8751 25 21.8751C24.7072 21.8751 24.4203 21.7984 24.1719 21.6537L0 7.55307V32.0833C0 32.8569 0.32924 33.5987 0.915291 34.1457C1.50134 34.6927 2.2962 35 3.125 35H46.875C47.7038 35 48.4987 34.6927 49.0847 34.1457C49.6708 33.5987 50 32.8569 50 32.0833V7.55307L25.8281 21.6537Z" fill="white"/>
</svg>
